<svg width="47" height="59" viewBox="0 0 47 59" fill="none" xmlns="http://www.w3.org/2000/svg">
<ellipse cx="23.2345" cy="29.0992" rx="23.2345" ry="29.0992" fill="#F5F6FA"/>
<path fill-rule="evenodd" clip-rule="evenodd" d="M18.379 41.8975H27.3585C30.6568 41.8975 33.1872 40.4053 32.4686 34.4001L31.6316 26.2615C31.1885 23.265 29.6625 22.1182 28.3234 22.1182H17.3747C16.0159 22.1182 14.5784 23.3513 14.0664 26.2615L13.2295 34.4001C12.6191 39.7272 15.0806 41.8975 18.379 41.8975Z" stroke="#1D1E20" stroke-width="1.5" stroke-linecap="round" stroke-linejoin="round"/>
<path d="M18.2312 21.8223C18.2312 18.6079 20.3119 16.002 22.8785 16.002C24.1144 15.9954 25.3015 16.6058 26.1773 17.698C27.0531 18.7902 27.5455 20.2744 27.5455 21.8223" stroke="#1D1E20" stroke-width="1.5" stroke-linecap="round" stroke-linejoin="round"/>
<path d="M19.6885 27.8894H19.7377" stroke="#1D1E20" stroke-width="1.5" stroke-linecap="round" stroke-linejoin="round"/>
<path d="M25.9602 27.8894H26.0095" stroke="#1D1E20" stroke-width="1.5" stroke-linecap="round" stroke-linejoin="round"/>
</svg>
