<svg width="25" height="24" viewBox="0 0 25 24" fill="none" xmlns="http://www.w3.org/2000/svg">
<path d="M21.73 8.00999L15.18 2.76999C13.9 1.74999 11.9 1.73999 10.63 2.75999L4.07999 8.00999C3.13999 8.75999 2.56999 10.26 2.76999 11.44L4.02999 18.98C4.31999 20.67 5.88999 22 7.59999 22H18.2C19.89 22 21.49 20.64 21.78 18.97L23.04 11.43C23.22 10.26 22.65 8.75999 21.73 8.00999ZM13.65 18C13.65 18.41 13.31 18.75 12.9 18.75C12.49 18.75 12.15 18.41 12.15 18V15C12.15 14.59 12.49 14.25 12.9 14.25C13.31 14.25 13.65 14.59 13.65 15V18Z" fill="#1DA1FA"/>
</svg>
