<svg width="25" height="24" viewBox="0 0 25 24" fill="none" xmlns="http://www.w3.org/2000/svg">
<path d="M12.4599 10.87C12.3599 10.86 12.2399 10.86 12.1299 10.87C9.74986 10.79 7.85986 8.84 7.85986 6.44C7.85986 3.99 9.83986 2 12.2999 2C14.7499 2 16.7399 3.99 16.7399 6.44C16.7299 8.84 14.8399 10.79 12.4599 10.87Z" stroke="#A2A2A2" stroke-width="1.5" stroke-linecap="round" stroke-linejoin="round"/>
<path d="M7.45978 14.56C5.03978 16.18 5.03978 18.82 7.45978 20.43C10.2098 22.27 14.7198 22.27 17.4698 20.43C19.8898 18.81 19.8898 16.17 17.4698 14.56C14.7298 12.73 10.2198 12.73 7.45978 14.56Z" stroke="#A2A2A2" stroke-width="1.5" stroke-linecap="round" stroke-linejoin="round"/>
</svg>
