<svg width="25" height="24" viewBox="0 0 25 24" fill="none" xmlns="http://www.w3.org/2000/svg">
<path d="M12.4601 10.87C12.3601 10.86 12.2401 10.86 12.1301 10.87C9.75011 10.79 7.86011 8.84 7.86011 6.44C7.86011 3.99 9.84011 2 12.3001 2C14.7501 2 16.7401 3.99 16.7401 6.44C16.7301 8.84 14.8401 10.79 12.4601 10.87Z" stroke="#3BE9FD" stroke-width="1.5" stroke-linecap="round" stroke-linejoin="round"/>
<path d="M7.46002 14.56C5.04002 16.18 5.04002 18.82 7.46002 20.43C10.21 22.27 14.72 22.27 17.47 20.43C19.89 18.81 19.89 16.17 17.47 14.56C14.73 12.73 10.22 12.73 7.46002 14.56Z" stroke="#3BE9FD" stroke-width="1.5" stroke-linecap="round" stroke-linejoin="round"/>
</svg>
